<?xml version="1.0" encoding="utf-8"?>
<!-- Generator: Adobe Illustrator 27.8.1, SVG Export Plug-In . SVG Version: 6.00 Build 0)  -->
<svg version="1.1" id="Layer_1" xmlns="http://www.w3.org/2000/svg" xmlns:xlink="http://www.w3.org/1999/xlink" x="0px" y="0px"
	 viewBox="0 0 92 302" style="enable-background:new 0 0 92 302;" xml:space="preserve">
<style type="text/css">
	.st0{fill:#FFFFFF;}
	.st1{fill:#F2C5C2;}
	.st2{fill:#BDC0F4;}
	.st3{fill:#D0B6D1;}
</style>
<path class="st0" d="M-0.4,301.37V-0.3h92v302C91.6,301.7-0.4,300.67-0.4,301.37z"/>
<path class="st1" d="M69.1,12.2h-55c-1.1,0-2,0.9-2,2v0c0,1.1,0.9,2,2,2h55c1.1,0,2-0.9,2-2v0C71.1,13.1,70.2,12.2,69.1,12.2z"/>
<path class="st1" d="M79.1,21.2h-65c-1.1,0-2,0.9-2,2v0c0,1.1,0.9,2,2,2h65c1.1,0,2-0.9,2-2v0C81.1,22.1,80.2,21.2,79.1,21.2z"/>
<path class="st1" d="M69.6,31.2h-56c-0.82,0-1.5,0.67-1.5,1.5l0,0c0,0.83,0.67,1.5,1.5,1.5h56c0.82,0,1.5-0.67,1.5-1.5l0,0
	C71.1,31.88,70.42,31.2,69.6,31.2z"/>
<path class="st2" d="M76.6,204.2h-64c-1.65,0-3-1.35-3-3v-70c0-1.65,1.35-3,3-3h64c1.65,0,3,1.35,3,3v70
	C79.6,202.85,78.25,204.2,76.6,204.2z"/>
<path class="st1" d="M78.6,117.7h-64c-1.65,0-3-1.35-3-3v-70c0-1.65,1.35-3,3-3h64c1.65,0,3,1.35,3,3v70
	C81.6,116.35,80.25,117.7,78.6,117.7z"/>
<path class="st3" d="M76.6,290.7h-64c-1.65,0-3-1.35-3-3v-70c0-1.65,1.35-3,3-3h64c1.65,0,3,1.35,3,3v70
	C79.6,289.35,78.25,290.7,76.6,290.7z"/>
<path class="st0" d="M65.05,46.7H18.6c-1.1,0-2,0.9-2,2v0c0,1.1,0.9,2,2,2h46.45c1.1,0,2-0.9,2-2v0
	C67.05,47.6,66.15,46.7,65.05,46.7z"/>
<path class="st0" d="M73.6,55.7h-55c-1.1,0-2,0.9-2,2v0c0,1.1,0.9,2,2,2h55c1.1,0,2-0.9,2-2v0C75.6,56.6,74.7,55.7,73.6,55.7z"/>
<path class="st0" d="M65.55,65.7H18.1c-0.82,0-1.5,0.67-1.5,1.5v0c0,0.82,0.67,1.5,1.5,1.5h47.45c0.82,0,1.5-0.68,1.5-1.5v0
	C67.05,66.38,66.37,65.7,65.55,65.7z"/>
<path class="st0" d="M65.05,74.7H18.6c-1.1,0-2,0.9-2,2v0c0,1.1,0.9,2,2,2h46.45c1.1,0,2-0.9,2-2v0
	C67.05,75.6,66.15,74.7,65.05,74.7z"/>
<path class="st0" d="M59.6,101.7h-41c-1.1,0-2,0.9-2,2l0,0c0,1.1,0.9,2,2,2h41c1.1,0,2-0.9,2-2l0,0
	C61.6,102.6,60.7,101.7,59.6,101.7z"/>
<path class="st0" d="M74.6,110.7h-56c-1.1,0-2,0.9-2,2l0,0c0,1.1,0.9,2,2,2h56c1.1,0,2-0.9,2-2l0,0
	C76.6,111.6,75.7,110.7,74.6,110.7z"/>
<path class="st0" d="M73.6,83.7h-55c-1.1,0-2,0.9-2,2v0c0,1.1,0.9,2,2,2h55c1.1,0,2-0.9,2-2v0C75.6,84.6,74.7,83.7,73.6,83.7z"/>
<path class="st0" d="M65.55,93.7H18.1c-0.82,0-1.5,0.67-1.5,1.5v0c0,0.82,0.67,1.5,1.5,1.5h47.45c0.82,0,1.5-0.68,1.5-1.5v0
	C67.05,94.38,66.37,93.7,65.55,93.7z"/>
<path class="st0" d="M65.05,132.7H18.6c-1.1,0-2,0.9-2,2l0,0c0,1.1,0.9,2,2,2h46.45c1.1,0,2-0.9,2-2l0,0
	C67.05,133.6,66.15,132.7,65.05,132.7z"/>
<path class="st0" d="M73.6,141.7h-55c-1.1,0-2,0.9-2,2l0,0c0,1.1,0.9,2,2,2h55c1.1,0,2-0.9,2-2l0,0
	C75.6,142.6,74.7,141.7,73.6,141.7z"/>
<path class="st0" d="M65.55,151.7H18.1c-0.82,0-1.5,0.68-1.5,1.5l0,0c0,0.82,0.67,1.5,1.5,1.5h47.45c0.82,0,1.5-0.68,1.5-1.5l0,0
	C67.05,152.38,66.37,151.7,65.55,151.7z"/>
<path class="st0" d="M65.05,160.7H18.6c-1.1,0-2,0.9-2,2l0,0c0,1.1,0.9,2,2,2h46.45c1.1,0,2-0.9,2-2l0,0
	C67.05,161.6,66.15,160.7,65.05,160.7z"/>
<path class="st0" d="M59.6,187.7h-41c-1.1,0-2,0.9-2,2v0c0,1.1,0.9,2,2,2h41c1.1,0,2-0.9,2-2v0C61.6,188.6,60.7,187.7,59.6,187.7z"
	/>
<path class="st0" d="M74.6,196.7h-56c-1.1,0-2,0.9-2,2v0c0,1.1,0.9,2,2,2h56c1.1,0,2-0.9,2-2v0C76.6,197.6,75.7,196.7,74.6,196.7z"
	/>
<path class="st0" d="M73.6,169.7h-55c-1.1,0-2,0.9-2,2l0,0c0,1.1,0.9,2,2,2h55c1.1,0,2-0.9,2-2l0,0
	C75.6,170.6,74.7,169.7,73.6,169.7z"/>
<path class="st0" d="M65.55,179.7H18.1c-0.82,0-1.5,0.68-1.5,1.5l0,0c0,0.82,0.67,1.5,1.5,1.5h47.45c0.82,0,1.5-0.68,1.5-1.5l0,0
	C67.05,180.38,66.37,179.7,65.55,179.7z"/>
<path class="st0" d="M65.05,217.7H18.6c-1.1,0-2,0.9-2,2l0,0c0,1.1,0.9,2,2,2h46.45c1.1,0,2-0.9,2-2l0,0
	C67.05,218.6,66.15,217.7,65.05,217.7z"/>
<path class="st0" d="M73.6,226.7h-55c-1.1,0-2,0.9-2,2l0,0c0,1.1,0.9,2,2,2h55c1.1,0,2-0.9,2-2l0,0
	C75.6,227.6,74.7,226.7,73.6,226.7z"/>
<path class="st0" d="M65.55,236.7H18.1c-0.82,0-1.5,0.68-1.5,1.5l0,0c0,0.82,0.67,1.5,1.5,1.5h47.45c0.82,0,1.5-0.68,1.5-1.5l0,0
	C67.05,237.38,66.37,236.7,65.55,236.7z"/>
<path class="st0" d="M65.05,245.7H18.6c-1.1,0-2,0.9-2,2l0,0c0,1.1,0.9,2,2,2h46.45c1.1,0,2-0.9,2-2l0,0
	C67.05,246.6,66.15,245.7,65.05,245.7z"/>
<path class="st0" d="M59.6,272.7h-41c-1.1,0-2,0.9-2,2l0,0c0,1.1,0.9,2,2,2h41c1.1,0,2-0.9,2-2l0,0
	C61.6,273.6,60.7,272.7,59.6,272.7z"/>
<path class="st0" d="M74.6,281.7h-56c-1.1,0-2,0.9-2,2l0,0c0,1.1,0.9,2,2,2h56c1.1,0,2-0.9,2-2l0,0
	C76.6,282.6,75.7,281.7,74.6,281.7z"/>
<path class="st0" d="M73.6,254.7h-55c-1.1,0-2,0.9-2,2l0,0c0,1.1,0.9,2,2,2h55c1.1,0,2-0.9,2-2l0,0
	C75.6,255.6,74.7,254.7,73.6,254.7z"/>
<path class="st0" d="M65.55,264.7H18.1c-0.82,0-1.5,0.68-1.5,1.5l0,0c0,0.83,0.67,1.5,1.5,1.5h47.45c0.82,0,1.5-0.67,1.5-1.5l0,0
	C67.05,265.38,66.37,264.7,65.55,264.7z"/>
</svg>
